<?xml version="1.0" encoding="UTF-8" standalone="no"?>
<!DOCTYPE svg PUBLIC "-//W3C//DTD SVG 1.1//EN"
 "http://www.w3.org/Graphics/SVG/1.1/DTD/svg11.dtd">
<!-- Generated by graphviz version 2.43.0 (0)
 -->
<!-- Title: finite_state_machine Pages: 1 -->
<svg width="597pt" height="210pt"
 viewBox="0.00 0.00 596.79 209.80" xmlns="http://www.w3.org/2000/svg" xmlns:xlink="http://www.w3.org/1999/xlink">
<g id="graph0" class="graph" transform="scale(1 1) rotate(0) translate(4 205.8)">
<title>finite_state_machine</title>
<polygon fill="white" stroke="transparent" points="-4,4 -4,-205.8 592.79,-205.8 592.79,4 -4,4"/>
<!-- 0 -->
<g id="node1" class="node">
<title>0</title>
<ellipse fill="none" stroke="black" cx="18" cy="-118.8" rx="18" ry="18"/>
<text text-anchor="middle" x="18" y="-115.1" font-family="Helvetica,Arial,sans-serif" font-size="14.00">0</text>
</g>
<!-- 3 -->
<g id="node2" class="node">
<title>3</title>
<ellipse fill="none" stroke="black" cx="98" cy="-62.8" rx="18" ry="18"/>
<text text-anchor="middle" x="98" y="-59.1" font-family="Helvetica,Arial,sans-serif" font-size="14.00">3</text>
</g>
<!-- 0&#45;&gt;3 -->
<g id="edge1" class="edge">
<title>0&#45;&gt;3</title>
<path fill="none" stroke="black" d="M31.97,-107.36C38.43,-101.84 46.46,-95.26 54,-89.8 60.05,-85.42 66.8,-80.99 73.12,-77.01"/>
<polygon fill="black" stroke="black" points="75.28,-79.8 81.96,-71.58 71.61,-73.84 75.28,-79.8"/>
<text text-anchor="middle" x="58" y="-93.6" font-family="Helvetica,Arial,sans-serif" font-size="14.00">2</text>
</g>
<!-- 2 -->
<g id="node3" class="node">
<title>2</title>
<ellipse fill="none" stroke="black" cx="152" cy="-163.8" rx="18" ry="18"/>
<text text-anchor="middle" x="152" y="-160.1" font-family="Helvetica,Arial,sans-serif" font-size="14.00">2</text>
</g>
<!-- 0&#45;&gt;2 -->
<g id="edge2" class="edge">
<title>0&#45;&gt;2</title>
<path fill="none" stroke="black" d="M34.94,-125.45C40.89,-127.86 47.72,-130.54 54,-132.8 77.69,-141.31 105.04,-149.95 124.65,-155.93"/>
<polygon fill="black" stroke="black" points="123.82,-159.34 134.4,-158.89 125.85,-152.64 123.82,-159.34"/>
<text text-anchor="middle" x="58" y="-138.6" font-family="Helvetica,Arial,sans-serif" font-size="14.00">2</text>
</g>
<!-- 1 -->
<g id="node4" class="node">
<title>1</title>
<ellipse fill="none" stroke="black" cx="206" cy="-118.8" rx="18" ry="18"/>
<text text-anchor="middle" x="206" y="-115.1" font-family="Helvetica,Arial,sans-serif" font-size="14.00">1</text>
</g>
<!-- 0&#45;&gt;1 -->
<g id="edge3" class="edge">
<title>0&#45;&gt;1</title>
<path fill="none" stroke="black" d="M36.17,-118.8C68.55,-118.8 138.91,-118.8 177.8,-118.8"/>
<polygon fill="black" stroke="black" points="177.88,-122.3 187.88,-118.8 177.88,-115.3 177.88,-122.3"/>
<text text-anchor="middle" x="98" y="-122.6" font-family="Helvetica,Arial,sans-serif" font-size="14.00">3</text>
</g>
<!-- 8 -->
<g id="node10" class="node">
<title>8</title>
<ellipse fill="none" stroke="black" cx="206" cy="-52.8" rx="18" ry="18"/>
<text text-anchor="middle" x="206" y="-49.1" font-family="Helvetica,Arial,sans-serif" font-size="14.00">8</text>
</g>
<!-- 3&#45;&gt;8 -->
<g id="edge9" class="edge">
<title>3&#45;&gt;8</title>
<path fill="none" stroke="black" d="M116.03,-61.19C132.72,-59.62 158.42,-57.19 177.92,-55.35"/>
<polygon fill="black" stroke="black" points="178.38,-58.82 188.01,-54.4 177.73,-51.86 178.38,-58.82"/>
<text text-anchor="middle" x="152" y="-63.6" font-family="Helvetica,Arial,sans-serif" font-size="14.00">2</text>
</g>
<!-- 5 -->
<g id="node8" class="node">
<title>5</title>
<ellipse fill="none" stroke="black" cx="399.6" cy="-167.8" rx="18" ry="18"/>
<text text-anchor="middle" x="399.6" y="-164.1" font-family="Helvetica,Arial,sans-serif" font-size="14.00">5</text>
</g>
<!-- 2&#45;&gt;5 -->
<g id="edge7" class="edge">
<title>2&#45;&gt;5</title>
<path fill="none" stroke="black" d="M170.27,-164.08C212.28,-164.76 320.1,-166.52 371.09,-167.35"/>
<polygon fill="black" stroke="black" points="371.29,-170.85 381.35,-167.52 371.4,-163.85 371.29,-170.85"/>
<text text-anchor="middle" x="246" y="-168.6" font-family="Helvetica,Arial,sans-serif" font-size="14.00">2</text>
</g>
<!-- 4 -->
<g id="node5" class="node">
<title>4</title>
<ellipse fill="none" stroke="black" cx="345.6" cy="-119.8" rx="18" ry="18"/>
<text text-anchor="middle" x="345.6" y="-116.1" font-family="Helvetica,Arial,sans-serif" font-size="14.00">4</text>
</g>
<!-- 1&#45;&gt;4 -->
<g id="edge4" class="edge">
<title>1&#45;&gt;4</title>
<path fill="none" stroke="black" d="M224.15,-118.92C247.43,-119.09 289.29,-119.4 317.02,-119.6"/>
<polygon fill="black" stroke="black" points="317.21,-123.1 327.23,-119.67 317.26,-116.1 317.21,-123.1"/>
<text text-anchor="middle" x="246" y="-122.6" font-family="Helvetica,Arial,sans-serif" font-size="14.00">1</text>
</g>
<!-- 6 -->
<g id="node6" class="node">
<title>6</title>
<ellipse fill="none" stroke="black" cx="288.8" cy="-77.8" rx="18" ry="18"/>
<text text-anchor="middle" x="288.8" y="-74.1" font-family="Helvetica,Arial,sans-serif" font-size="14.00">6</text>
</g>
<!-- 1&#45;&gt;6 -->
<g id="edge5" class="edge">
<title>1&#45;&gt;6</title>
<path fill="none" stroke="black" d="M218.36,-105.39C224.66,-98.8 233.03,-91.32 242,-86.8 247.65,-83.94 254.12,-82 260.39,-80.66"/>
<polygon fill="black" stroke="black" points="261.26,-84.06 270.54,-78.95 260.1,-77.16 261.26,-84.06"/>
<text text-anchor="middle" x="246" y="-90.6" font-family="Helvetica,Arial,sans-serif" font-size="14.00">2</text>
</g>
<!-- 10 -->
<g id="node7" class="node">
<title>10</title>
<ellipse fill="none" stroke="black" cx="482.39" cy="-123.8" rx="20.6" ry="20.6"/>
<text text-anchor="middle" x="482.39" y="-120.1" font-family="Helvetica,Arial,sans-serif" font-size="14.00">10</text>
</g>
<!-- 4&#45;&gt;10 -->
<g id="edge6" class="edge">
<title>4&#45;&gt;10</title>
<path fill="none" stroke="black" d="M363.67,-120.3C385.68,-120.96 424.34,-122.11 451.33,-122.91"/>
<polygon fill="black" stroke="black" points="451.3,-126.41 461.4,-123.2 451.5,-119.41 451.3,-126.41"/>
<text text-anchor="middle" x="399.6" y="-125.6" font-family="Helvetica,Arial,sans-serif" font-size="14.00">1</text>
</g>
<!-- 9 -->
<g id="node11" class="node">
<title>9</title>
<ellipse fill="none" stroke="black" cx="399.6" cy="-62.8" rx="18" ry="18"/>
<text text-anchor="middle" x="399.6" y="-59.1" font-family="Helvetica,Arial,sans-serif" font-size="14.00">9</text>
</g>
<!-- 6&#45;&gt;9 -->
<g id="edge10" class="edge">
<title>6&#45;&gt;9</title>
<path fill="none" stroke="black" d="M306.8,-75.45C324.12,-73.07 351.26,-69.32 371.54,-66.53"/>
<polygon fill="black" stroke="black" points="372.29,-69.96 381.72,-65.13 371.33,-63.02 372.29,-69.96"/>
<text text-anchor="middle" x="345.6" y="-76.6" font-family="Helvetica,Arial,sans-serif" font-size="14.00">2</text>
</g>
<!-- 12 -->
<g id="node9" class="node">
<title>12</title>
<ellipse fill="none" stroke="black" cx="567.99" cy="-151.8" rx="20.6" ry="20.6"/>
<text text-anchor="middle" x="567.99" y="-148.1" font-family="Helvetica,Arial,sans-serif" font-size="14.00">12</text>
</g>
<!-- 10&#45;&gt;12 -->
<g id="edge8" class="edge">
<title>10&#45;&gt;12</title>
<path fill="none" stroke="black" d="M502.58,-130.01C510.79,-132.69 520.47,-135.87 529.19,-138.8 532.19,-139.8 535.31,-140.86 538.43,-141.92"/>
<polygon fill="black" stroke="black" points="537.57,-145.33 548.17,-145.26 539.84,-138.71 537.57,-145.33"/>
<text text-anchor="middle" x="525.19" y="-142.6" font-family="Helvetica,Arial,sans-serif" font-size="14.00">6</text>
</g>
<!-- 5&#45;&gt;10 -->
<g id="edge14" class="edge">
<title>5&#45;&gt;10</title>
<path fill="none" stroke="black" d="M415.79,-159.52C426.76,-153.55 441.84,-145.34 454.78,-138.29"/>
<polygon fill="black" stroke="black" points="456.62,-141.27 463.73,-133.42 453.28,-135.12 456.62,-141.27"/>
<text text-anchor="middle" x="439.6" y="-151.6" font-family="Helvetica,Arial,sans-serif" font-size="14.00">1</text>
</g>
<!-- 7 -->
<g id="node13" class="node">
<title>7</title>
<ellipse fill="none" stroke="black" cx="482.39" cy="-183.8" rx="18" ry="18"/>
<text text-anchor="middle" x="482.39" y="-180.1" font-family="Helvetica,Arial,sans-serif" font-size="14.00">7</text>
</g>
<!-- 5&#45;&gt;7 -->
<g id="edge15" class="edge">
<title>5&#45;&gt;7</title>
<path fill="none" stroke="black" d="M417.34,-171.11C428.06,-173.24 442.22,-176.04 454.5,-178.47"/>
<polygon fill="black" stroke="black" points="454.19,-181.98 464.67,-180.49 455.54,-175.11 454.19,-181.98"/>
<text text-anchor="middle" x="439.6" y="-179.6" font-family="Helvetica,Arial,sans-serif" font-size="14.00">1</text>
</g>
<!-- 11 -->
<g id="node12" class="node">
<title>11</title>
<ellipse fill="none" stroke="black" cx="288.8" cy="-20.8" rx="20.6" ry="20.6"/>
<text text-anchor="middle" x="288.8" y="-17.1" font-family="Helvetica,Arial,sans-serif" font-size="14.00">11</text>
</g>
<!-- 8&#45;&gt;11 -->
<g id="edge11" class="edge">
<title>8&#45;&gt;11</title>
<path fill="none" stroke="black" d="M222.96,-46.48C233.49,-42.31 247.55,-36.74 259.9,-31.85"/>
<polygon fill="black" stroke="black" points="261.31,-35.05 269.32,-28.12 258.74,-28.54 261.31,-35.05"/>
<text text-anchor="middle" x="246" y="-42.6" font-family="Helvetica,Arial,sans-serif" font-size="14.00">2</text>
</g>
<!-- 9&#45;&gt;10 -->
<g id="edge13" class="edge">
<title>9&#45;&gt;10</title>
<path fill="none" stroke="black" d="M415.87,-70.54C424.34,-75.11 434.89,-81.27 443.6,-87.8 449.25,-92.04 454.96,-97.03 460.17,-101.93"/>
<polygon fill="black" stroke="black" points="457.78,-104.48 467.39,-108.94 462.65,-99.46 457.78,-104.48"/>
<text text-anchor="middle" x="439.6" y="-91.6" font-family="Helvetica,Arial,sans-serif" font-size="14.00">4</text>
</g>
<!-- 11&#45;&gt;9 -->
<g id="edge12" class="edge">
<title>11&#45;&gt;9</title>
<path fill="none" stroke="black" d="M308.64,-27.84C323.57,-33.45 344.95,-41.53 363.6,-48.8 366.71,-50.01 369.97,-51.29 373.19,-52.57"/>
<polygon fill="black" stroke="black" points="372.01,-55.87 382.59,-56.33 374.6,-49.37 372.01,-55.87"/>
<text text-anchor="middle" x="345.6" y="-52.6" font-family="Helvetica,Arial,sans-serif" font-size="14.00">2</text>
</g>
<!-- 7&#45;&gt;12 -->
<g id="edge16" class="edge">
<title>7&#45;&gt;12</title>
<path fill="none" stroke="black" d="M499.51,-177.63C510.63,-173.37 525.7,-167.6 538.78,-162.6"/>
<polygon fill="black" stroke="black" points="540.21,-165.8 548.3,-158.95 537.7,-159.26 540.21,-165.8"/>
<text text-anchor="middle" x="525.19" y="-171.6" font-family="Helvetica,Arial,sans-serif" font-size="14.00">1</text>
</g>
</g>
</svg>
